<svg xmlns="http://www.w3.org/2000/svg" xmlns:xlink="http://www.w3.org/1999/xlink">
  <symbol viewBox="0 0 15 10" id="view">
    <path transform="translate(-750 -647)" d="M757.487 647c3.314 0 6.17 1.99 7.483 4.861.04.089.04.19 0 .278-1.312 2.87-4.169 4.86-7.483 4.86s-6.17-1.99-7.483-4.86a.334.334 0 0 1 0-.278c1.312-2.871 4.169-4.861 7.483-4.861zm0 8.45c1.87 0 3.387-1.545 3.387-3.45 0-1.904-1.516-3.449-3.387-3.449-1.87 0-3.387 1.544-3.387 3.45 0 1.904 1.515 3.449 3.387 3.449zm0-1.243c-1.198 0-2.168-.989-2.168-2.208 0-1.22.97-2.208 2.168-2.208 1.197 0 2.168.989 2.168 2.208 0 1.22-.97 2.208-2.168 2.208z"/>
  </symbol>
  <symbol id="comment" viewBox="0 0 16 14">
	<path d="M2.177 11.275l2.047 2.463c.263.316.696.312.959 0l2.083-2.463h7.992c.405 0 .732-.338.732-.756V.756c0-.419-.32-.756-.732-.756H.726C.324 0-.002.337-.002.756v9.763c0 .418.323.756.728.756h1.451zm.727-8.1c0-.092.071-.169.16-.169h9.132c.088 0 .16.073.16.169v.418c0 .092-.075.165-.16.165H3.064c-.089 0-.16-.073-.16-.165v-.418zm0 2.253c0-.092.071-.165.16-.165h9.132c.088 0 .16.073.16.165v.418c0 .092-.075.166-.16.166H3.064c-.089 0-.16-.074-.16-.166v-.418zm0 2.254c0-.092.068-.165.153-.165h6.239c.082 0 .149.073.149.165V8.1c0 .093-.067.17-.149.17H3.057c-.082 0-.153-.075-.153-.17v-.418z"/>
  </symbol>
  <symbol id="close" viewBox="0 0 21.9 21.9">
    <path d="M14.1 11.3c-.2-.2-.2-.5 0-.7l7.5-7.5c.2-.2.3-.5.3-.7s-.1-.5-.3-.7L20.2.3c-.2-.2-.5-.3-.7-.3-.3 0-.5.1-.7.3l-7.5 7.5c-.2.2-.5.2-.7 0L3.1.3C2.9.1 2.6 0 2.4 0s-.5.1-.7.3L.3 1.7c-.2.2-.3.5-.3.7s.1.5.3.7l7.5 7.5c.2.2.2.5 0 .7L.3 18.8c-.2.2-.3.5-.3.7s.1.5.3.7l1.4 1.4c.2.2.5.3.7.3s.5-.1.7-.3l7.5-7.5c.2-.2.5-.2.7 0l7.5 7.5c.2.2.5.3.7.3s.5-.1.7-.3l1.4-1.4c.2-.2.3-.5.3-.7s-.1-.5-.3-.7l-7.5-7.5z"/>
  </symbol>
</svg>

